<?xml version="1.0" encoding="iso-8859-1"?>
<!-- Generator: Adobe Illustrator 16.0.0, SVG Export Plug-In . SVG Version: 6.00 Build 0)  -->
<!DOCTYPE svg PUBLIC "-//W3C//DTD SVG 1.1//EN" "http://www.w3.org/Graphics/SVG/1.1/DTD/svg11.dtd">
<svg version="1.1" id="Layer_1" xmlns="http://www.w3.org/2000/svg" xmlns:xlink="http://www.w3.org/1999/xlink" x="0px" y="0px"
	 width="48.395px" height="38.908px" viewBox="0 0 48.395 38.908" style="enable-background:new 0 0 48.395 38.908;"
	 xml:space="preserve">
<path style="fill-rule:evenodd;clip-rule:evenodd;fill:#FFFFFF;" d="M2.863,2.026c0,0,6.873,9.117,20.618,10.006
	c-0.344-1.556-0.647-8.69,6.586-11.396c6.243-2.334,10.309,2.501,10.309,2.501s2.692,0.056,6.586-2.223
	c0.172,1.723-3.723,4.892-4.295,5.281c1.203,0.167,4.41-0.834,5.727-1.39c-0.687,1.056-2.462,3.057-4.868,4.725
	c0,1.668,0.457,20.38-18.613,27.517C10.652,42.384,0,34.546,0,34.546s8.476,0.889,14.318-4.169c-1.89,0-7.617-1.278-9.164-6.67
	c0.802,0.222,2.864,0.445,4.295,0C8.075,23.261,1.604,20.927,1.432,13.7c0.917,0.445,1.89,1.112,4.582,1.39
	C4.41,13.867-0.745,9.086,2.863,2.026z"/>
</svg>
